<mxfile host="app.diagrams.net" agent="Mozilla/5.0 (Windows NT 10.0; Win64; x64) AppleWebKit/537.36 (KHTML, like Gecko) Chrome/128.0.0.0 Safari/537.36 Edg/128.0.0.0" version="24.7.6">
  <diagram name="Page-1" id="RjQ-yjMprM0l9Swcy9ED">
    <mxGraphModel dx="765" dy="1158" grid="1" gridSize="10" guides="1" tooltips="1" connect="1" arrows="1" fold="1" page="1" pageScale="1" pageWidth="850" pageHeight="1100" math="0" shadow="0">
      <root>
        <mxCell id="0" />
        <mxCell id="1" parent="0" />
        <mxCell id="8GsP74nl-6KZMK6J00mR-35" value="" style="rounded=1;whiteSpace=wrap;html=1;fillColor=#fff2cc;strokeColor=#d6b656;" parent="1" vertex="1">
          <mxGeometry x="420" y="544" width="160" height="130" as="geometry" />
        </mxCell>
        <mxCell id="8GsP74nl-6KZMK6J00mR-36" value="Agent Runtime Worker" style="text;html=1;align=center;verticalAlign=middle;whiteSpace=wrap;rounded=0;" parent="1" vertex="1">
          <mxGeometry x="435" y="641" width="130" height="30" as="geometry" />
        </mxCell>
        <mxCell id="8GsP74nl-6KZMK6J00mR-37" value="Agent" style="rounded=1;whiteSpace=wrap;html=1;fillColor=#dae8fc;strokeColor=#6c8ebf;" parent="1" vertex="1">
          <mxGeometry x="430" y="595" width="60" height="40" as="geometry" />
        </mxCell>
        <mxCell id="8GsP74nl-6KZMK6J00mR-38" value="" style="endArrow=none;html=1;rounded=0;entryX=1;entryY=0.25;entryDx=0;entryDy=0;" parent="1" edge="1">
          <mxGeometry width="50" height="50" relative="1" as="geometry">
            <mxPoint x="420" y="584" as="sourcePoint" />
            <mxPoint x="580" y="584" as="targetPoint" />
          </mxGeometry>
        </mxCell>
        <mxCell id="8GsP74nl-6KZMK6J00mR-39" value="Runtime Internals" style="text;html=1;align=center;verticalAlign=middle;whiteSpace=wrap;rounded=0;" parent="1" vertex="1">
          <mxGeometry x="445" y="554" width="110" height="30" as="geometry" />
        </mxCell>
        <mxCell id="8GsP74nl-6KZMK6J00mR-46" value="Gateway" style="rounded=0;whiteSpace=wrap;html=1;fillColor=#f5f5f5;strokeColor=#666666;fontColor=#333333;" parent="1" vertex="1">
          <mxGeometry x="465" y="524" width="70" height="30" as="geometry" />
        </mxCell>
        <mxCell id="8GsP74nl-6KZMK6J00mR-47" value="Agent" style="rounded=1;whiteSpace=wrap;html=1;fillColor=#dae8fc;strokeColor=#6c8ebf;" parent="1" vertex="1">
          <mxGeometry x="510" y="595" width="60" height="40" as="geometry" />
        </mxCell>
        <mxCell id="8GsP74nl-6KZMK6J00mR-51" value="Messages" style="text;html=1;align=center;verticalAlign=middle;whiteSpace=wrap;rounded=0;" parent="1" vertex="1">
          <mxGeometry x="480" y="460" width="60" height="30" as="geometry" />
        </mxCell>
        <mxCell id="8GsP74nl-6KZMK6J00mR-52" value="" style="rounded=1;whiteSpace=wrap;html=1;fillColor=#fff2cc;strokeColor=#d6b656;" parent="1" vertex="1">
          <mxGeometry x="170" y="544" width="160" height="130" as="geometry" />
        </mxCell>
        <mxCell id="8GsP74nl-6KZMK6J00mR-53" value="Agent Runtime Worker" style="text;html=1;align=center;verticalAlign=middle;whiteSpace=wrap;rounded=0;" parent="1" vertex="1">
          <mxGeometry x="185" y="641" width="130" height="30" as="geometry" />
        </mxCell>
        <mxCell id="8GsP74nl-6KZMK6J00mR-54" value="Agent" style="rounded=1;whiteSpace=wrap;html=1;fillColor=#dae8fc;strokeColor=#6c8ebf;" parent="1" vertex="1">
          <mxGeometry x="180" y="595" width="60" height="40" as="geometry" />
        </mxCell>
        <mxCell id="8GsP74nl-6KZMK6J00mR-55" value="" style="endArrow=none;html=1;rounded=0;entryX=1;entryY=0.25;entryDx=0;entryDy=0;" parent="1" edge="1">
          <mxGeometry width="50" height="50" relative="1" as="geometry">
            <mxPoint x="170" y="584" as="sourcePoint" />
            <mxPoint x="330" y="584" as="targetPoint" />
          </mxGeometry>
        </mxCell>
        <mxCell id="8GsP74nl-6KZMK6J00mR-56" value="Runtime Internals" style="text;html=1;align=center;verticalAlign=middle;whiteSpace=wrap;rounded=0;" parent="1" vertex="1">
          <mxGeometry x="195" y="554" width="110" height="30" as="geometry" />
        </mxCell>
        <mxCell id="8GsP74nl-6KZMK6J00mR-57" value="Gateway" style="rounded=0;whiteSpace=wrap;html=1;fillColor=#f5f5f5;strokeColor=#666666;fontColor=#333333;" parent="1" vertex="1">
          <mxGeometry x="215" y="524" width="70" height="30" as="geometry" />
        </mxCell>
        <mxCell id="8GsP74nl-6KZMK6J00mR-58" value="Agent" style="rounded=1;whiteSpace=wrap;html=1;fillColor=#dae8fc;strokeColor=#6c8ebf;" parent="1" vertex="1">
          <mxGeometry x="260" y="595" width="60" height="40" as="geometry" />
        </mxCell>
        <mxCell id="vdA4A5oa0nTi3r876v9t-1" value="Agent Runtime Host Servicer" style="rounded=1;whiteSpace=wrap;html=1;fillColor=#fff2cc;strokeColor=#d6b656;" parent="1" vertex="1">
          <mxGeometry x="278.41999999999996" y="420" width="193.16" height="60" as="geometry" />
        </mxCell>
        <mxCell id="vdA4A5oa0nTi3r876v9t-3" value="" style="endArrow=classic;startArrow=classic;html=1;rounded=0;exitX=0.5;exitY=0;exitDx=0;exitDy=0;entryX=0.25;entryY=1;entryDx=0;entryDy=0;" parent="1" source="8GsP74nl-6KZMK6J00mR-57" target="vdA4A5oa0nTi3r876v9t-1" edge="1">
          <mxGeometry width="50" height="50" relative="1" as="geometry">
            <mxPoint x="270" y="500" as="sourcePoint" />
            <mxPoint x="300" y="457" as="targetPoint" />
          </mxGeometry>
        </mxCell>
        <mxCell id="vdA4A5oa0nTi3r876v9t-4" value="" style="endArrow=classic;startArrow=classic;html=1;rounded=0;exitX=0.5;exitY=0;exitDx=0;exitDy=0;entryX=0.75;entryY=1;entryDx=0;entryDy=0;" parent="1" source="8GsP74nl-6KZMK6J00mR-46" target="vdA4A5oa0nTi3r876v9t-1" edge="1">
          <mxGeometry width="50" height="50" relative="1" as="geometry">
            <mxPoint x="460" y="470" as="sourcePoint" />
            <mxPoint x="510" y="420" as="targetPoint" />
          </mxGeometry>
        </mxCell>
        <mxCell id="vdA4A5oa0nTi3r876v9t-5" value="" style="endArrow=classic;html=1;rounded=0;entryX=0.5;entryY=1;entryDx=0;entryDy=0;exitX=0.25;exitY=0;exitDx=0;exitDy=0;startArrow=classic;startFill=1;" parent="1" source="vdA4A5oa0nTi3r876v9t-1" target="DxK2RyRN8qJiN3uKQ46P-6" edge="1">
          <mxGeometry width="50" height="50" relative="1" as="geometry">
            <mxPoint x="460" y="470" as="sourcePoint" />
            <mxPoint x="375" y="390" as="targetPoint" />
          </mxGeometry>
        </mxCell>
        <mxCell id="vdA4A5oa0nTi3r876v9t-6" value="Messages" style="text;html=1;align=center;verticalAlign=middle;whiteSpace=wrap;rounded=0;" parent="1" vertex="1">
          <mxGeometry x="405" y="381" width="60" height="30" as="geometry" />
        </mxCell>
        <mxCell id="vdA4A5oa0nTi3r876v9t-8" value="Messages" style="text;html=1;align=center;verticalAlign=middle;whiteSpace=wrap;rounded=0;" parent="1" vertex="1">
          <mxGeometry x="200" y="460" width="60" height="30" as="geometry" />
        </mxCell>
        <mxCell id="DxK2RyRN8qJiN3uKQ46P-1" value="" style="rounded=1;whiteSpace=wrap;html=1;fillColor=#fff2cc;strokeColor=#d6b656;" vertex="1" parent="1">
          <mxGeometry x="170" y="230" width="160" height="130" as="geometry" />
        </mxCell>
        <mxCell id="DxK2RyRN8qJiN3uKQ46P-2" value="Agent Runtime Worker" style="text;html=1;align=center;verticalAlign=middle;whiteSpace=wrap;rounded=0;" vertex="1" parent="1">
          <mxGeometry x="185" y="235" width="130" height="30" as="geometry" />
        </mxCell>
        <mxCell id="DxK2RyRN8qJiN3uKQ46P-3" value="Agent" style="rounded=1;whiteSpace=wrap;html=1;fillColor=#dae8fc;strokeColor=#6c8ebf;" vertex="1" parent="1">
          <mxGeometry x="180" y="268" width="60" height="40" as="geometry" />
        </mxCell>
        <mxCell id="DxK2RyRN8qJiN3uKQ46P-4" value="" style="endArrow=none;html=1;rounded=0;entryX=1;entryY=0.25;entryDx=0;entryDy=0;" edge="1" parent="1">
          <mxGeometry width="50" height="50" relative="1" as="geometry">
            <mxPoint x="170" y="321" as="sourcePoint" />
            <mxPoint x="330" y="321" as="targetPoint" />
          </mxGeometry>
        </mxCell>
        <mxCell id="DxK2RyRN8qJiN3uKQ46P-5" value="Runtime Internals" style="text;html=1;align=center;verticalAlign=middle;whiteSpace=wrap;rounded=0;" vertex="1" parent="1">
          <mxGeometry x="195" y="321" width="110" height="30" as="geometry" />
        </mxCell>
        <mxCell id="DxK2RyRN8qJiN3uKQ46P-6" value="Gateway" style="rounded=0;whiteSpace=wrap;html=1;fillColor=#f5f5f5;strokeColor=#666666;fontColor=#333333;" vertex="1" parent="1">
          <mxGeometry x="215" y="351" width="70" height="30" as="geometry" />
        </mxCell>
        <mxCell id="DxK2RyRN8qJiN3uKQ46P-7" value="Agent" style="rounded=1;whiteSpace=wrap;html=1;fillColor=#dae8fc;strokeColor=#6c8ebf;" vertex="1" parent="1">
          <mxGeometry x="260" y="268" width="60" height="40" as="geometry" />
        </mxCell>
        <mxCell id="DxK2RyRN8qJiN3uKQ46P-8" value="" style="rounded=1;whiteSpace=wrap;html=1;fillColor=#fff2cc;strokeColor=#d6b656;" vertex="1" parent="1">
          <mxGeometry x="420" y="230" width="160" height="130" as="geometry" />
        </mxCell>
        <mxCell id="DxK2RyRN8qJiN3uKQ46P-9" value="Agent Runtime Worker" style="text;html=1;align=center;verticalAlign=middle;whiteSpace=wrap;rounded=0;" vertex="1" parent="1">
          <mxGeometry x="435" y="235" width="130" height="30" as="geometry" />
        </mxCell>
        <mxCell id="DxK2RyRN8qJiN3uKQ46P-10" value="Agent" style="rounded=1;whiteSpace=wrap;html=1;fillColor=#dae8fc;strokeColor=#6c8ebf;" vertex="1" parent="1">
          <mxGeometry x="430" y="268" width="60" height="40" as="geometry" />
        </mxCell>
        <mxCell id="DxK2RyRN8qJiN3uKQ46P-11" value="" style="endArrow=none;html=1;rounded=0;entryX=1;entryY=0.25;entryDx=0;entryDy=0;" edge="1" parent="1">
          <mxGeometry width="50" height="50" relative="1" as="geometry">
            <mxPoint x="420" y="321" as="sourcePoint" />
            <mxPoint x="580" y="321" as="targetPoint" />
          </mxGeometry>
        </mxCell>
        <mxCell id="DxK2RyRN8qJiN3uKQ46P-12" value="Runtime Internals" style="text;html=1;align=center;verticalAlign=middle;whiteSpace=wrap;rounded=0;" vertex="1" parent="1">
          <mxGeometry x="445" y="321" width="110" height="30" as="geometry" />
        </mxCell>
        <mxCell id="DxK2RyRN8qJiN3uKQ46P-13" value="Gateway" style="rounded=0;whiteSpace=wrap;html=1;fillColor=#f5f5f5;strokeColor=#666666;fontColor=#333333;" vertex="1" parent="1">
          <mxGeometry x="465" y="351" width="70" height="30" as="geometry" />
        </mxCell>
        <mxCell id="DxK2RyRN8qJiN3uKQ46P-14" value="Agent" style="rounded=1;whiteSpace=wrap;html=1;fillColor=#dae8fc;strokeColor=#6c8ebf;" vertex="1" parent="1">
          <mxGeometry x="510" y="268" width="60" height="40" as="geometry" />
        </mxCell>
        <mxCell id="DxK2RyRN8qJiN3uKQ46P-15" value="" style="endArrow=classic;html=1;rounded=0;entryX=0.5;entryY=1;entryDx=0;entryDy=0;exitX=0.75;exitY=0;exitDx=0;exitDy=0;startArrow=classic;startFill=1;" edge="1" parent="1" source="vdA4A5oa0nTi3r876v9t-1" target="DxK2RyRN8qJiN3uKQ46P-13">
          <mxGeometry width="50" height="50" relative="1" as="geometry">
            <mxPoint x="337" y="430" as="sourcePoint" />
            <mxPoint x="260" y="391" as="targetPoint" />
          </mxGeometry>
        </mxCell>
        <mxCell id="DxK2RyRN8qJiN3uKQ46P-16" value="Messages" style="text;html=1;align=center;verticalAlign=middle;whiteSpace=wrap;rounded=0;" vertex="1" parent="1">
          <mxGeometry x="285" y="381" width="60" height="30" as="geometry" />
        </mxCell>
      </root>
    </mxGraphModel>
  </diagram>
</mxfile>
